<svg height="256" viewBox="0 0 256000 256002" width="256" xmlns="http://www.w3.org/2000/svg" shape-rendering="geometricPrecision" text-rendering="geometricPrecision" image-rendering="optimizeQuality" fill-rule="evenodd" clip-rule="evenodd"><defs><style>.fil2{fill:#e9e9e8}.fil3{fill:#fffffe}</style></defs><g id="Layer_x0020_1"><g id="_400352496"><path fill="#1572b6" d="M221081 228523L241216 2960l265-2960H14519l264 2960 20115 225601 168 1880 1812 503 90265 25058h1446l90512-25095 1811-503z"/><path fill="#35a8db" d="M223988 16000h-95988v223561l77961-21615z"/><path class="fil2" d="M127893 76061l-67703 28196 2247 27916 65456-27988 69628-29768 2888-28557z"/><path class="fil2" d="M127893 45861h72516l-572 5653-571 5652-572 5651-572 5654-571 5652-30 294H57624l-101-808-571-4625-572-4624-572-4627-571-4624-571-4624-571-4624h73728zM60295 104261h134767l-2456 28234-130065-322z"/><path class="fil2" d="M64506 147899l29481 12 1924 23086 31982 7931 32835-9214 2222-37751 29743-468-5333 61321-59359 17326-59789-17647z"/><g><path class="fil3" d="M128000 104139l69521-29722 2888-28557-72409 30156z"/><path class="fil3" d="M128000 45861h72409l-572 5653-571 5652-572 5651-572 5654-571 5652-30 294h-69521zM128000 104261h67062l-2456 28234-64606-160z"/><path class="fil3" d="M128000 178899l32728-9185 2222-37751 29743-468-5333 61321-59359 17326h-1z"/></g></g></g><path fill="none" d="M0 1h256000v256000H0z"/></svg>