<svg height="256" viewBox="0 0 256000 256002" width="256" xmlns="http://www.w3.org/2000/svg" shape-rendering="geometricPrecision" text-rendering="geometricPrecision" image-rendering="optimizeQuality" fill-rule="evenodd" clip-rule="evenodd"><defs><style>.fil3{fill:#fefefe}.fil2{fill:#eaeaea}</style></defs><g id="Layer_x0020_1"><g id="_396627504"><path fill="#e55638" d="M35175 230411L14519 0h226962l-20678 230375-92942 25627z"/><path fill="#f26b3a" d="M128000 236414l75102-20707 17670-196867h-92772z"/><path class="fil2" d="M128000 104296H90402l-2596-28938h40194V47099H56753l681 7581 6982 77874h63584zM128000 177688l-124 33-31644-8499-2023-22537H65686l3980 44371 58203 16069 131-36z"/><path class="fil3" d="M127902 104296v28258h34987l-3298 36650-31689 8508v29400l58249-16056 426-4774 6678-74397 692-7589h-7656zM127902 47099v28259h68630l571-6352 1294-14326 680-7581z"/></g></g><path fill="none" d="M0 1h256000v256000H0z"/></svg>